<svg width="37" height="43" viewBox="0 0 37 43" fill="none" xmlns="http://www.w3.org/2000/svg">
<path fill-rule="evenodd" clip-rule="evenodd" d="M24.696 3.28429C24.8773 1.66476 23.7291 0.202348 22.1096 0.021057C20.4901 -0.17232 19.0277 0.987941 18.8464 2.60747C18.6288 4.45664 18.931 6.66838 19.3177 8.94056C20.3934 9.26688 21.4328 9.73824 22.3997 10.2942C23.4391 7.84073 24.4543 5.41143 24.696 3.28429ZM36.069 10.3909C35.4284 8.89221 33.688 8.2154 32.1894 8.85596C30.2193 9.71407 28.1768 11.394 26.1222 13.1223C26.8957 13.8838 27.6208 14.7419 28.2372 15.6725C30.5698 15.3824 32.8058 15.0319 34.5341 14.2826C36.0327 13.6179 36.7216 11.8775 36.069 10.3909ZM31.1016 2.48661C29.7963 1.51973 27.9472 1.78562 26.9803 3.09091C25.5058 5.07302 24.5147 8.0341 23.4391 10.9227C23.8016 11.1644 24.1401 11.4061 24.4664 11.6599C24.7081 11.8533 24.9619 12.0588 25.2157 12.2642C27.6813 10.403 30.2435 8.59006 31.718 6.60795C32.6849 5.30266 32.4069 3.45349 31.1016 2.48661Z" fill="#53B175"/>
<path d="M25.4938 26.1511C24.5873 27.13 23.6204 28.0365 22.5931 28.9188C21.1549 30.1636 19.6925 31.3722 18.2059 32.5325C16.6105 31.5535 15.4624 31.058 15.269 31.3118C15.0998 31.5414 15.7645 32.3875 16.961 33.4873C12.9485 36.4725 8.70626 39.1073 4.14982 41.2707C3.43675 41.6091 2.68741 41.8508 1.95016 42.1167C1.75678 42.1892 1.55132 42.1892 1.46672 42.2013C0.306459 42.3343 -0.0440367 42.02 0.00430748 40.9565C0.14934 37.6449 1.17665 34.5388 2.24023 31.4447C2.53029 30.5987 2.83244 29.7527 3.14668 28.9067C4.75412 29.8856 5.9023 30.3933 6.09567 30.1394C6.30114 29.8615 5.33425 28.7496 3.71472 27.3597C4.87498 24.3623 6.16819 21.4133 7.69103 18.5852C10.7367 20.8453 13.444 22.3319 13.7461 21.9209C14.0483 21.51 11.8124 19.3224 8.73043 17.0382L8.59749 16.9415C9.12927 16.035 9.68523 15.1286 10.2774 14.2463C11.0147 13.1344 11.9212 12.1192 12.8155 11.1281C14.012 9.81072 15.559 9.36353 17.2874 9.75029C22.8228 10.9831 26.6661 14.1617 28.479 19.6125C28.8416 20.7244 28.5153 21.8122 27.9473 22.8153C27.5605 23.4921 27.1375 24.1327 26.6661 24.737C23.7413 22.5978 21.2032 21.2199 20.9132 21.6067C20.6352 21.9935 22.6536 23.9876 25.4938 26.1511Z" fill="#53B175"/>
</svg>
