<svg width="50" height="58" viewBox="0 0 50 58" fill="none" xmlns="http://www.w3.org/2000/svg">
<path fill-rule="evenodd" clip-rule="evenodd" d="M33.6946 4.48099C33.9419 2.27135 32.3754 0.276077 30.1658 0.0287295C27.9561 -0.235108 25.9609 1.34792 25.7135 3.55755C25.4167 6.0805 25.8289 9.09814 26.3566 12.1982C27.8242 12.6435 29.2423 13.2866 30.5615 14.0451C31.9797 10.6977 33.3648 7.3832 33.6946 4.48099ZM49.2115 14.177C48.3376 12.1323 45.963 11.2088 43.9183 12.0828C41.2305 13.2536 38.4437 15.5457 35.6404 17.9037C36.6957 18.9426 37.6851 20.1134 38.5261 21.3831C41.7087 20.9873 44.7593 20.5091 47.1173 19.4867C49.1621 18.5798 50.102 16.2053 49.2115 14.177ZM42.4342 3.39266C40.6533 2.07347 38.1304 2.43625 36.8112 4.21715C34.7994 6.92148 33.4472 10.9615 31.9797 14.9026C32.4743 15.2324 32.9361 15.5622 33.3813 15.9084C33.7111 16.1723 34.0574 16.4526 34.4037 16.7329C37.7676 14.1935 41.2634 11.72 43.2752 9.01569C44.5944 7.23479 44.2151 4.71184 42.4342 3.39266Z" fill="white"/>
<path d="M34.7829 35.6798C33.5462 37.0154 32.227 38.2522 30.8254 39.4559C28.8631 41.1544 26.8678 42.8034 24.8396 44.3864C22.6629 43.0507 21.0964 42.3746 20.8325 42.7209C20.6017 43.0342 21.5086 44.1885 23.1411 45.6891C17.6665 49.7621 11.8786 53.3569 5.66189 56.3085C4.68899 56.7703 3.66662 57.1001 2.66074 57.4628C2.3969 57.5618 2.11658 57.5618 2.00115 57.5783C0.418123 57.7596 -0.0600824 57.3309 0.005877 55.8798C0.203755 51.3616 1.60539 47.1237 3.0565 42.9023C3.45225 41.748 3.8645 40.5937 4.29323 39.4394C6.48638 40.7751 8.05292 41.4677 8.31676 41.1214C8.59708 40.7421 7.2779 39.2251 5.06826 37.3287C6.65128 33.2393 8.41569 29.2157 10.4934 25.3571C14.6489 28.4407 18.3426 30.469 18.7548 29.9083C19.1671 29.3477 16.1164 26.363 11.9115 23.2464L11.7302 23.1145C12.4557 21.8778 13.2142 20.641 14.0222 19.4373C15.0281 17.9202 16.2649 16.5351 17.4851 15.1829C19.1176 13.3855 21.2283 12.7754 23.5863 13.303C31.1387 14.985 36.3825 19.3218 38.8559 26.7588C39.3506 28.2758 38.9054 29.7599 38.1304 31.1286C37.6027 32.052 37.0256 32.926 36.3825 33.7504C32.3919 30.8317 28.9291 28.9519 28.5333 29.4796C28.154 30.0072 30.9078 32.7281 34.7829 35.6798Z" fill="white"/>
</svg>
