<svg width="38" height="38" viewBox="0 0 38 38" fill="none" xmlns="http://www.w3.org/2000/svg">
<rect width="38" height="38" rx="10" fill="#53B175"/>
<path d="M26.0724 19C26.0724 19.3127 25.9525 19.615 25.7283 19.8339C25.5094 20.058 25.207 20.1831 24.8941 20.1831H20.1809V24.8948C20.1809 25.2075 20.0558 25.5098 19.8316 25.7287C19.6126 25.9476 19.3154 26.0727 19.0026 26.0727C18.6897 26.0727 18.3873 25.9476 18.1684 25.7287C17.9442 25.5098 17.819 25.2075 17.819 24.8948V20.1831H13.1058C12.793 20.1831 12.4906 20.058 12.2716 19.8339C12.0526 19.615 11.9275 19.3127 11.9275 19C11.9275 18.6872 12.0526 18.3902 12.2716 18.166C12.4906 17.9471 12.793 17.822 13.1058 17.822H17.819V13.1104C17.819 12.7977 17.9442 12.4954 18.1684 12.2765C18.3873 12.0523 18.6897 11.9272 19.0026 11.9272C19.3154 11.9272 19.6126 12.0523 19.8316 12.2765C20.0558 12.4954 20.1809 12.7977 20.1809 13.1104V17.822H24.8941C25.207 17.822 25.5094 17.9471 25.7283 18.166C25.9525 18.3902 26.0724 18.6872 26.0724 19Z" fill="white"/>
</svg>
