<svg width="18" height="18" viewBox="0 0 18 18" fill="none" xmlns="http://www.w3.org/2000/svg">
<path d="M7.56318 13.2352C8.30805 13.2352 9.04561 13.0885 9.73378 12.8034C10.4219 12.5184 11.0472 12.1006 11.5739 11.5739C12.1006 11.0472 12.5184 10.4219 12.8035 9.73377C13.0885 9.0456 13.2352 8.30804 13.2352 7.56318C13.2352 6.81832 13.0885 6.08075 12.8035 5.39259C12.5184 4.70442 12.1006 4.07914 11.5739 3.55245C11.0472 3.02575 10.4219 2.60795 9.73378 2.32291C9.04561 2.03786 8.30805 1.89115 7.56318 1.89115C6.05887 1.89115 4.61616 2.48874 3.55245 3.55245C2.48874 4.61616 1.89115 6.05886 1.89115 7.56318C1.89115 9.06749 2.48874 10.5102 3.55245 11.5739C4.61616 12.6376 6.05887 13.2352 7.56318 13.2352ZM13.5377 12.201L16.922 15.5853C17.0123 15.6726 17.0842 15.7769 17.1337 15.8923C17.1831 16.0077 17.2091 16.1317 17.2101 16.2573C17.2111 16.3828 17.1871 16.5073 17.1395 16.6234C17.0919 16.7395 17.0216 16.845 16.9328 16.9337C16.844 17.0224 16.7384 17.0926 16.6222 17.14C16.5059 17.1875 16.3814 17.2113 16.2559 17.2101C16.1304 17.2089 16.0064 17.1828 15.8911 17.1331C15.7758 17.0835 15.6715 17.0114 15.5844 16.9211L12.2001 13.5368C10.6804 14.7164 8.7683 15.2726 6.853 15.092C4.93771 14.9115 3.1632 14.0078 1.89073 12.565C0.618251 11.1222 -0.0565426 9.24866 0.00371425 7.32582C0.0639711 5.40299 0.854749 3.57539 2.21507 2.21507C3.57539 0.854748 5.40299 0.0639711 7.32583 0.00371425C9.24867 -0.0565426 11.1222 0.618251 12.565 1.89073C14.0079 3.1632 14.9115 4.9377 15.092 6.85299C15.2726 8.76829 14.7164 10.6804 13.5368 12.2001L13.5377 12.201Z" fill="#181B19"/>
</svg>
